# File created by Blade
# Date/Time:  Thu Sep 25 19:26:26 2014
# Frame Rate: 120.000 fps
#------------------------------------------------------
:FULLY-SPECIFIED
:DEGREES
318
root -3.311068 31.705057 -11.981117 107.444115 -27.620187 -6.564156
Spine 41.237013 6.989934 20.562901
Head 6.817177 -16.972581 13.200979
LeftShoulder 2.952449 -19.768053 49.456462
LeftArm 54.367751 -40.687374 -27.099802
LeftForeArm 42.441296 -0.000000 43.989923
LeftHand -34.255249 -0.000000 56.199463
LeftHandThumb1 -26.253704 0.000000 33.147579
RightShoulder 4.284090 65.634675 -42.510993
RightArm 17.227791 10.521622 44.976966
RightForeArm -35.068525 0.000000 45.346866
RightHand -8.361674 -0.000000 -45.006184
RightHandThumb1 -24.326973 -0.000000 -32.862282
LeftUpLeg -104.278658 20.134522 -27.930778
LeftLeg -0.738235 -0.000000 0.000000
LeftFoot -9.092163 20.693299 -38.067747
LeftToeBase 10.752866 -0.000000 -0.000000
RightUpLeg -116.006171 -0.091065 5.742254
RightLeg -1.568629 -0.000000 0.000000
RightFoot 9.083039 8.787938 5.099633
RightToeBase -0.279896 -0.000000 0.000000
319
root -3.315783 31.705502 -11.979910 107.510579 -27.596497 -6.595631
Spine 41.299473 7.032619 20.524060
Head 6.895274 -16.959844 13.268528
LeftShoulder 2.873207 -19.685610 49.496855
LeftArm 54.397807 -40.876342 -27.202113
LeftForeArm 42.479250 0.000000 44.227390
LeftHand -34.306667 -0.000000 56.132574
LeftHandThumb1 -26.253704 0.000000 33.147579
RightShoulder 4.204774 65.676079 -42.589095
RightArm 17.137541 10.579130 44.951586
RightForeArm -35.123133 -0.000000 45.489319
RightHand -8.385832 -0.000000 -45.004438
RightHandThumb1 -24.326973 -0.000000 -32.862282
LeftUpLeg -104.335010 20.182488 -27.829532
LeftLeg -0.672982 -0.000000 0.000000
LeftFoot -9.167536 20.734221 -38.145587
LeftToeBase 10.750135 -0.000000 -0.000000
RightUpLeg -116.065218 -0.042918 5.767476
RightLeg -1.536699 -0.000000 0.000000
RightFoot 9.171876 8.784079 5.270918
RightToeBase -0.612881 -0.000000 0.000000
320
root -3.319745 31.705472 -11.979730 107.572048 -27.584257 -6.627465
Spine 41.344008 7.014808 20.444623
Head 7.043796 -16.901713 13.244038
LeftShoulder 2.786403 -19.469935 49.491412
LeftArm 54.454710 -41.131755 -27.256793
LeftForeArm 42.589004 0.000000 44.425686
LeftHand -34.404408 0.000000 55.973374
LeftHandThumb1 -26.253704 0.000000 33.147579
RightShoulder 4.281195 65.774845 -42.554803
RightArm 17.039132 10.679720 44.966994
RightForeArm -35.211045 -0.000000 45.623378
RightHand -8.387677 0.000000 -45.206033
RightHandThumb1 -24.326973 -0.000000 -32.862282
LeftUpLeg -104.385152 20.230695 -27.728746
LeftLeg -0.602948 -0.000000 0.000000
LeftFoot -9.274266 20.775785 -38.279221
LeftToeBase 10.756940 -0.000000 -0.000000
RightUpLeg -116.128067 0.001044 5.777170
RightLeg -1.485419 -0.000000 0.000000
RightFoot 9.178595 8.788579 5.331289
RightToeBase -0.689302 -0.000000 0.000000
321
root -3.326488 31.705966 -11.981788 107.639380 -27.559533 -6.691762
Spine 41.408289 7.085261 20.404531
Head 7.218179 -16.934906 13.183769
LeftShoulder 2.758166 -19.294299 49.488659
LeftArm 54.511048 -41.392518 -27.316456
LeftForeArm 42.721984 0.000000 44.614743
LeftHand -34.509971 -0.000000 55.915801
LeftHandThumb1 -26.253704 0.000000 33.147579
RightShoulder 4.291766 65.851922 -42.554960
RightArm 16.948524 10.775575 44.978747
RightForeArm -35.370396 -0.000000 45.715081
RightHand -8.479955 -0.000000 -45.331217
RightHandThumb1 -24.326973 -0.000000 -32.862282
LeftUpLeg -104.467776 20.311372 -27.663370
LeftLeg -0.512360 -0.000000 0.000000
LeftFoot -9.363761 20.761173 -38.414934
LeftToeBase 10.801520 -0.000000 -0.000000
RightUpLeg -116.178956 0.084974 5.783421
RightLeg -1.428453 -0.000000 0.000000
RightFoot 9.138713 8.782880 5.247799
RightToeBase -0.711254 -0.000000 0.000000
